{"title":"Raja Rani (2013) - DVDSCR - x264 - MKV - 500MB[","uid":8979848,"size":520107565,"categoryP":"video","categoryS":"movies","magnet":"?xt=urn:btih:c6dfebb4e5fc2c55c8c544c8dcd75ca6f359e433&amp;dn=Raja+Rani+%282013%29+-+DVDSCR+-+x264+-+MKV+-+500MB%5B&amp;tr=udp%3A%2F%2Ftracker.openbittorrent.com%3A80&amp;tr=udp%3A%2F%2Fopen.demonii.com%3A1337&amp;tr=udp%3A%2F%2Ftracker.coppersurfer.tk%3A6969&amp;tr=udp%3A%2F%2Fexodus.desync.com%3A6969","seeders":0,"leechers":1,"uploader":"Hacking_Guys","files":3,"time":1380534381,"description":"[CENTER][FONT=&quot;Century Gothic&quot;][B][SIZE=&quot;5&quot;][COLOR=&quot;Red&quot;]Raja Rani (2013) - DVDSCR - x264 - MKV - 500MB[/COLOR][/SIZE][/B][/FONT]\n\n[IMG]http://wallpapers.oneindia.in/ph-1024x768/2013/08/raja-rani_137724304300.jpg[/IMG]\n\n[IMG]http://i.imgur.com/yElgnCZ.png[/IMG]\n\n[code]Format                                   : Matroska\nFormat version                           : Version 4 / Version 2\nFile size                                : 496 MiB\nDuration                                 : 2h 43mn\nOverall bit rate mode                    : Variable\nOverall bit rate                         : 424 Kbps\nEncoded date                             : UTC 2010-02-22 21:41:31\nWriting application                      : mkvmerge v5.9.0 ('On The Loose') built on Dec  9 2012 15:37:01\nWriting library                          : libebml v1.3.0 + libmatroska v1.4.0\n\nVideo\nID                                       : 1\nFormat                                   : AVC\nFormat/Info                              : Advanced Video Codec\nFormat profile                           : &lt;a class=&quot;__cf_email__&quot; href=&quot;/cdn-cgi/l/email-protection&quot; data-cfemail=&quot;2961404e4169651d0718&quot;&gt;[email&amp;#160;protected]&lt;/a&gt;&lt;script cf-hash='f9e31' type=&quot;text/javascript&quot;&gt;\n/* &lt;![CDATA[ */!function(){try{var t=&quot;currentScript&quot;in document?document.currentScript:function(){for(var t=document.getElementsByTagName(&quot;script&quot;),e=t.length;e--;)if(t[e].getAttribute(&quot;cf-hash&quot;))return t[e]}();if(t&amp;&amp;t.previousSibling){var e,r,n,i,c=t.previousSibling,a=c.getAttribute(&quot;data-cfemail&quot;);if(a){for(e=&quot;&quot;,r=parseInt(a.substr(0,2),16),n=2;a.length-n;n+=2)i=parseInt(a.substr(n,2),16)^r,e+=String.fromCharCode(i);e=document.createTextNode(e),c.parentNode.replaceChild(e,c)}}}catch(u){}}();/* ]]&gt; */&lt;/script&gt;\nFormat settings, CABAC                   : Yes\nFormat settings, ReFrames                : 5 frames\nMuxing mode                              : Header stripping\nCodec ID                                 : V_MPEG4/ISO/AVC\nDuration                                 : 2h 43mn\nBit rate mode                            : Variable\nBit rate                                 : 374 Kbps\nMaximum bit rate                         : 14.5 Mbps\nWidth                                    : 608 pixels\nHeight                                   : 256 pixels\nDisplay aspect ratio                     : 2.40:1\nFrame rate mode                          : Constant\nFrame rate                               : 29.970 fps\nColor space                              : YUV\nChroma subsampling                       : 4:2:0\nBit depth                                : 8 bits\nScan type                                : Progressive\nBits/(Pixel*Frame)                       : 0.080\nStream size                              : 430 MiB (87%)\nWriting library                          : x264 core 133 r2334 a3ac64b\nEncoding settings                        : cabac=1 // deblock=1:-1:-1 / analyse=0x3:0x133 / me=umh / subme=10 / psy=1 / psy_rd=1.00:0.15 // me_range=24 / chroma_me=1 / trellis=2 / 8x8dct=1 / cqm=0 / deadzone=21,11 / fast_pskip=1 / chroma_qp_offset=-3 / threads=6 / lookahead_threads=1 / sliced_threads=0 / nr=0 / decimate=1 / interlaced=0 / bluray_compat=1 / constrained_intra=0 / bframes=3 / b_pyramid=1 / b_adapt=2 / b_bias=0 / direct=3 / weightb=1 / open_gop=1 / weightp=1 / keyint=29 / keyint_min=1 / scenecut=40 / intra_refresh=0 / rc_lookahead=29 / rc=2pass / mbtree=1 / bitrate=374 / ratetol=1.0 / qcomp=0.60 / qpmin=10 / qpmax=51 / qpstep=4 / cplxblur=20.0 / qblur=0.5 / vbv_maxrate=14500 / vbv_bufsize=14500 / nal_hrd=vbr / ip_ratio=1.40 / aq=1:1.00\nLanguage                                 : Tamil\nDefault                                  : Yes\nForced                                   : No\n\nAudio\nID                                       : 2\nFormat                                   : MPEG Audio\nFormat version                           : Version 2\nFormat profile                           : Layer 3\nMode                                     : Joint stereo\nMuxing mode                              : Header stripping\nCodec ID                                 : A_MPEG/L3\nCodec ID/Hint                            : MP3\nDuration                                 : 2h 43mn\nBit rate mode                            : Constant\nBit rate                                 : 48.0 Kbps\nChannel(s)                               : 2 channels\nSampling rate                            : 22.05 KHz\nCompression mode                         : Lossy\nStream size                              : 56.1 MiB (11%)\nLanguage                                 : Tamil\nDefault                                  : Yes\nForced                                   : No\n[/code]\n\n[IMG]http://i.imgur.com/WNFEzjW.png[/IMG]\n\n[URL=http://someimage.com/INmUjza][IMG]http://t1.someimage.com/INmUjza.jpg[/IMG][/URL] [URL=http://someimage.com/s1MtmDD][IMG]http://t1.someimage.com/s1MtmDD.jpg[/IMG][/URL] [URL=http://someimage.com/FhVhfjL][IMG]http://t1.someimage.com/FhVhfjL.jpg[/IMG][/URL] [URL=http://someimage.com/eXZe2UM][IMG]http://t1.someimage.com/eXZe2UM.jpg[/IMG][/URL] [URL=http://someimage.com/G7xPwxU][IMG]http://t1.someimage.com/G7xPwxU.jpg[/IMG][/URL] [URL=http://someimage.com/k0CCSeW][IMG]http://t1.someimage.com/k0CCSeW.jpg[/IMG][/URL] [URL=http://someimage.com/5HpAPbH][IMG]http://t1.someimage.com/5HpAPbH.jpg[/IMG][/URL] [URL=http://someimage.com/UkjY793][IMG]http://t1.someimage.com/UkjY793.jpg[/IMG][/URL] [URL=http://someimage.com/0UFwR3b][IMG]http://t1.someimage.com/0UFwR3b.jpg[/IMG][/URL] [URL=http://someimage.com/erWoioR][IMG]http://t1.someimage.com/erWoioR.jpg[/IMG][/URL] [URL=http://someimage.com/0tEW1Um][IMG]http://t1.someimage.com/0tEW1Um.jpg[/IMG][/URL] [URL=http://someimage.com/HVUr53g][IMG]http://t1.someimage.com/HVUr53g.jpg[/IMG][/URL] [URL=http://someimage.com/23aSNFe][IMG]http://t1.someimage.com/23aSNFe.jpg[/IMG][/URL] [URL=http://someimage.com/vzgzQ2O][IMG]http://t1.someimage.com/vzgzQ2O.jpg[/IMG][/URL] [URL=http://someimage.com/YhvOAZA][IMG]http://t1.someimage.com/YhvOAZA.jpg[/IMG][/URL] [URL=http://someimage.com/rJNYuyg][IMG]http://t1.someimage.com/rJNYuyg.jpg[/IMG][/URL] [URL=http://someimage.com/psniln1][IMG]http://t1.someimage.com/psniln1.jpg[/IMG][/URL] [URL=http://someimage.com/YT6jicI][IMG]http://t1.someimage.com/YT6jicI.jpg[/IMG][/URL] \n\nPlease Seed Back After Download\n\nSeeding Will Be Slow Please Be Patient\n\nRipper: Thalaivaa\n[/CENTER]","torrent":{"xt":"urn:btih:c6dfebb4e5fc2c55c8c544c8dcd75ca6f359e433","amp;dn":"Raja+Rani+%282013%29+-+DVDSCR+-+x264+-+MKV+-+500MB%5B","amp;tr":["udp%3A%2F%2Ftracker.openbittorrent.com%3A80","udp%3A%2F%2Fopen.demonii.com%3A1337","udp%3A%2F%2Ftracker.coppersurfer.tk%3A6969","udp%3A%2F%2Fexodus.desync.com%3A6969"],"infoHash":"c6dfebb4e5fc2c55c8c544c8dcd75ca6f359e433","infoHashBuffer":{"type":"Buffer","data":[198,223,235,180,229,252,44,85,200,197,68,200,220,215,92,166,243,89,228,51]},"announce":[],"urlList":[]}}